<svg width="24" height="24" viewBox="0 0 24 24" fill="none" xmlns="http://www.w3.org/2000/svg">
  <path d="M19 7C19 5.9 18.1 5 17 5H14V7H17V9H15V11H17V13H14V15H17C18.1 15 19 14.1 19 13V7Z" stroke="#00A8A8" stroke-width="1.5" stroke-linecap="round" stroke-linejoin="round"/>
  <path d="M9 5H7C5.9 5 5 5.9 5 7V13C5 14.1 5.9 15 7 15H9C10.1 15 11 14.1 11 13V7C11 5.9 10.1 5 9 5Z" stroke="#00A8A8" stroke-width="1.5" stroke-linecap="round" stroke-linejoin="round"/>
  <path d="M9 9H7V11H9V9Z" stroke="#00A8A8" stroke-width="1.5" stroke-linecap="round" stroke-linejoin="round"/>
  <path d="M12 16V19" stroke="#00A8A8" stroke-width="1.5" stroke-linecap="round" stroke-linejoin="round"/>
  <path d="M8 19H16" stroke="#00A8A8" stroke-width="1.5" stroke-linecap="round" stroke-linejoin="round"/>
  <path d="M22 12L20 10V14L22 12Z" stroke="#00A8A8" stroke-width="1.5" stroke-linecap="round" stroke-linejoin="round"/>
  <path d="M20 12H19" stroke="#00A8A8" stroke-width="1.5" stroke-linecap="round" stroke-linejoin="round"/>
  <path d="M2 12L4 10V14L2 12Z" stroke="#00A8A8" stroke-width="1.5" stroke-linecap="round" stroke-linejoin="round"/>
  <path d="M4 12H5" stroke="#00A8A8" stroke-width="1.5" stroke-linecap="round" stroke-linejoin="round"/>
</svg> 