<svg width="24" height="24" viewBox="0 0 24 24" fill="none" xmlns="http://www.w3.org/2000/svg">
  <path d="M10 3H4C3.44772 3 3 3.44772 3 4V10C3 10.5523 3.44772 11 4 11H10C10.5523 11 11 10.5523 11 10V4C11 3.44772 10.5523 3 10 3Z" stroke="#00A8A8" stroke-width="1.5" stroke-linecap="round" stroke-linejoin="round"/>
  <path d="M20 3H14C13.4477 3 13 3.44772 13 4V10C13 10.5523 13.4477 11 14 11H20C20.5523 11 21 10.5523 21 10V4C21 3.44772 20.5523 3 20 3Z" stroke="#00A8A8" stroke-width="1.5" stroke-linecap="round" stroke-linejoin="round"/>
  <path d="M10 13H4C3.44772 13 3 13.4477 3 14V20C3 20.5523 3.44772 21 4 21H10C10.5523 21 11 20.5523 11 20V14C11 13.4477 10.5523 13 10 13Z" stroke="#00A8A8" stroke-width="1.5" stroke-linecap="round" stroke-linejoin="round"/>
  <path d="M17 13V21" stroke="#00A8A8" stroke-width="1.5" stroke-linecap="round" stroke-linejoin="round"/>
  <path d="M13 17H21" stroke="#00A8A8" stroke-width="1.5" stroke-linecap="round" stroke-linejoin="round"/>
</svg> 