<svg xmlns="http://www.w3.org/2000/svg" viewBox="0 0 100 100" fill="none">
  <g fill="#61DAFB">
    <circle cx="50" cy="50" r="10" />
    <path d="M50 38.5c-13.3 0-25.3 1.9-33.1 5-8.8 3.4-13.4 8.2-13.4 13.5 0 5.6 5 10.7 14.3 14.2 7.5 2.8 18.9 4.3 32.2 4.3 11.5 0 21.8-1.3 29.6-3.6 9.5-2.9 15.4-8.2 15.4-14.9 0-5.3-4.6-10.1-13.4-13.5-7.8-3.1-19.8-5-31.6-5zm0 3c10.5 0 21.3 1.7 28.1 4.4 7.5 2.9 11.9 6.9 11.9 10.6 0 3.7-4.4 7.7-11.9 10.6-6.8 2.7-17.6 4.4-28.1 4.4-10.5 0-21.3-1.7-28.1-4.4-7.5-2.9-11.9-6.9-11.9-10.6 0-3.7 4.4-7.7 11.9-10.6 6.8-2.7 17.6-4.4 28.1-4.4z"/>
    <path d="M30.6 27.2c-6.9 11.9-9.2 23.3-6.5 31.2 2.9 8.5 9.3 13.5 17.6 14.2 8.7.8 18.5-2.2 27.7-8.4 7.5-5 14.5-12.2 18.4-20 4.8-9.4 5.3-18.4 1.9-25.3-3.2-6.5-9.5-10.6-17.8-11.5-7.6-.8-16.4 1.3-25.2 6.2-9.6 5.3-16 13.6-16 13.6zm2.2 1.4s5.9-7.3 14.5-12.1c7.9-4.4 15.5-6.3 21.8-5.6 6.6.7 11.5 3.8 14 8.7 3 6 2.5 13.9-1.6 21.9-3.5 6.8-9.7 13.2-16.3 17.7-8.3 5.6-16.9 8.2-24.2 7.5-6.8-.6-12.2-4.6-14.5-11.6-2.3-6.8-.2-17 6.3-28.5z"/>
    <path d="M69.4 27.2c6.9 11.9 9.2 23.3 6.5 31.2-2.9 8.5-9.3 13.5-17.6 14.2-8.7.8-18.5-2.2-27.7-8.4-7.5-5-14.5-12.2-18.4-20-4.8-9.4-5.3-18.4-1.9-25.3 3.2-6.5 9.5-10.6 17.8-11.5 7.6-.8 16.4 1.3 25.2 6.2 9.6 5.3 16 13.6 16 13.6zm-2.2 1.4s-5.9-7.3-14.5-12.1c-7.9-4.4-15.5-6.3-21.8-5.6-6.6.7-11.5 3.8-14 8.7-3 6-2.5 13.9 1.6 21.9 3.5 6.8 9.7 13.2 16.3 17.7 8.3 5.6 16.9 8.2 24.2 7.5 6.8-.6 12.2-4.6 14.5-11.6 2.3-6.8.2-17-6.3-28.5z"/>
  </g>
</svg> 