<svg width="24" height="24" viewBox="0 0 24 24" fill="none" xmlns="http://www.w3.org/2000/svg">
  <path d="M21 10.5V8.8C21 4.43 19.57 3 15.2 3H8.8C4.43 3 3 4.43 3 8.8V15.2C3 19.57 4.43 21 8.8 21H11.5" stroke="#00A8A8" stroke-width="1.5" stroke-linecap="round" stroke-linejoin="round"/>
  <path d="M8 12H16" stroke="#00A8A8" stroke-width="1.5" stroke-linecap="round" stroke-linejoin="round"/>
  <path d="M8 16H12" stroke="#00A8A8" stroke-width="1.5" stroke-linecap="round" stroke-linejoin="round"/>
  <path d="M8 8H16" stroke="#00A8A8" stroke-width="1.5" stroke-linecap="round" stroke-linejoin="round"/>
  <path d="M16.5 16.5L18.5 18.5" stroke="#00A8A8" stroke-width="1.5" stroke-linecap="round" stroke-linejoin="round"/>
  <path d="M16.5 14C18.9853 14 21 16.0147 21 18.5C21 20.9853 18.9853 23 16.5 23C14.0147 23 12 20.9853 12 18.5C12 16.0147 14.0147 14 16.5 14Z" stroke="#00A8A8" stroke-width="1.5" stroke-linecap="round" stroke-linejoin="round"/>
</svg> 